<svg xmlns="http://www.w3.org/2000/svg" width="1400" height="510" viewBox="0 0 1400 510">
<rect width="100%" height="100%" fill="#fff"/>
<style>text{font-family:Segoe UI,Microsoft YaHei,Arial,sans-serif;fill:#17232c}</style>
<text x="95" y="31" font-size="24" font-weight="650">4/U10: weaker baseline does not guarantee a DVAC gain</text>
<text x="95" y="57" font-size="15">Matched legacy environment; filtering off on both sides. Stopped after complete R49.</text>
<line x1="95" y1="415.0" x2="1355" y2="415.0" stroke="#dce3e7"/>
<text x="80" y="420.0" text-anchor="end" font-size="15">0%</text>
<line x1="95" y1="352.0" x2="1355" y2="352.0" stroke="#dce3e7"/>
<text x="80" y="357.0" text-anchor="end" font-size="15">20%</text>
<line x1="95" y1="289.0" x2="1355" y2="289.0" stroke="#dce3e7"/>
<text x="80" y="294.0" text-anchor="end" font-size="15">40%</text>
<line x1="95" y1="226.0" x2="1355" y2="226.0" stroke="#dce3e7"/>
<text x="80" y="231.0" text-anchor="end" font-size="15">60%</text>
<line x1="95" y1="163.0" x2="1355" y2="163.0" stroke="#dce3e7"/>
<text x="80" y="168.0" text-anchor="end" font-size="15">80%</text>
<line x1="95" y1="100.0" x2="1355" y2="100.0" stroke="#dce3e7"/>
<text x="80" y="105.0" text-anchor="end" font-size="15">100%</text>
<text x="95.0" y="443" text-anchor="middle" font-size="15">0</text>
<text x="347.0" y="443" text-anchor="middle" font-size="15">9</text>
<text x="599.0" y="443" text-anchor="middle" font-size="15">18</text>
<text x="851.0" y="443" text-anchor="middle" font-size="15">27</text>
<text x="1103.0" y="443" text-anchor="middle" font-size="15">36</text>
<text x="1355.0" y="443" text-anchor="middle" font-size="15">45</text>
<polyline fill="none" stroke="#006D77" stroke-width="2.6" points="235.00,336.25 375.00,296.88 515.00,306.72 655.00,296.88 795.00,306.72 935.00,306.72 1075.00,306.72 1215.00,326.41 1355.00,336.25"/>
<circle cx="235.0" cy="336.25" r="4.8" fill="white" stroke="#006D77" stroke-width="2"/>
<circle cx="375.0" cy="296.875" r="4.8" fill="white" stroke="#006D77" stroke-width="2"/>
<circle cx="515.0" cy="306.71875" r="4.8" fill="white" stroke="#006D77" stroke-width="2"/>
<circle cx="655.0" cy="296.875" r="4.8" fill="white" stroke="#006D77" stroke-width="2"/>
<circle cx="795.0" cy="306.71875" r="4.8" fill="white" stroke="#006D77" stroke-width="2"/>
<circle cx="935.0" cy="306.71875" r="4.8" fill="white" stroke="#006D77" stroke-width="2"/>
<circle cx="1075.0" cy="306.71875" r="4.8" fill="white" stroke="#006D77" stroke-width="2"/>
<circle cx="1215.0" cy="326.40625" r="4.8" fill="white" stroke="#006D77" stroke-width="2"/>
<circle cx="1355.0" cy="336.25" r="4.8" fill="white" stroke="#006D77" stroke-width="2"/>
<line x1="95" y1="471" x2="127" y2="471" stroke="#006D77" stroke-width="3"/>
<text x="138" y="476" font-size="15">Clean 4/U10; legacy / off</text>
<polyline fill="none" stroke="#D14900" stroke-width="2.6" stroke-dasharray="8,5" points="235.00,316.56 375.00,296.88 515.00,326.41 655.00,306.72 795.00,316.56 935.00,336.25 1075.00,336.25 1215.00,316.56 1355.00,316.56"/>
<rect x="230.5" y="312.0625" width="9" height="9" fill="white" stroke="#D14900" stroke-width="2"/>
<rect x="370.5" y="292.375" width="9" height="9" fill="white" stroke="#D14900" stroke-width="2"/>
<rect x="510.5" y="321.90625" width="9" height="9" fill="white" stroke="#D14900" stroke-width="2"/>
<rect x="650.5" y="302.21875" width="9" height="9" fill="white" stroke="#D14900" stroke-width="2"/>
<rect x="790.5" y="312.0625" width="9" height="9" fill="white" stroke="#D14900" stroke-width="2"/>
<rect x="930.5" y="331.75" width="9" height="9" fill="white" stroke="#D14900" stroke-width="2"/>
<rect x="1070.5" y="331.75" width="9" height="9" fill="white" stroke="#D14900" stroke-width="2"/>
<rect x="1210.5" y="312.0625" width="9" height="9" fill="white" stroke="#D14900" stroke-width="2"/>
<rect x="1350.5" y="312.0625" width="9" height="9" fill="white" stroke="#D14900" stroke-width="2"/>
<line x1="725" y1="471" x2="757" y2="471" stroke="#D14900" stroke-width="3" stroke-dasharray="8,5"/>
<text x="768" y="476" font-size="15">New 4/U10; legacy / off</text>
<text x="725.0" y="468" text-anchor="middle" font-size="15">Completed rounds</text>
</svg>